<?xml version="1.0" encoding="UTF-8" standalone="no"?>
<!-- Created with Inkscape (http://www.inkscape.org/) -->

<svg
   width="400mm"
   height="400mm"
   viewBox="0 0 400 400"
   version="1.1"
   id="svg1"
   xml:space="preserve"
   xmlns:inkscape="http://www.inkscape.org/namespaces/inkscape"
   xmlns:sodipodi="http://sodipodi.sourceforge.net/DTD/sodipodi-0.dtd"
   xmlns="http://www.w3.org/2000/svg"
   xmlns:svg="http://www.w3.org/2000/svg"><sodipodi:namedview
     id="namedview1"
     pagecolor="#ffffff"
     bordercolor="#666666"
     borderopacity="1.0"
     inkscape:showpageshadow="2"
     inkscape:pageopacity="0.0"
     inkscape:pagecheckerboard="0"
     inkscape:deskcolor="#d1d1d1"
     inkscape:document-units="mm"
     inkscape:zoom="0.22627417"
     inkscape:cx="1000.998"
     inkscape:cy="963.43299"
     inkscape:window-width="1366"
     inkscape:window-height="705"
     inkscape:window-x="-8"
     inkscape:window-y="-8"
     inkscape:window-maximized="1"
     inkscape:current-layer="layer1" /><defs
     id="defs1" /><g
     inkscape:label="Layer 1"
     inkscape:groupmode="layer"
     id="layer1"
     transform="translate(-1080.9093,-271.49759)"><g
       id="g71"><g
         id="g67"
         transform="translate(-79.466187)"><rect
           style="fill:#ffd10f;fill-opacity:1;stroke-width:0.6;stroke-linecap:square;paint-order:markers stroke fill"
           id="rect65"
           width="200"
           height="200"
           x="1360.3755"
           y="271.49759"
           rx="0"
           ry="0" /><path
           id="path35"
           style="fill:#ff6164;fill-opacity:1;stroke-width:0.600001;stroke-linecap:square;paint-order:markers stroke fill"
           d="m 1458.091,298.89059 c -0.7552,0.046 -1.5442,0.16652 -2.4061,0.39579 -1.0887,0.28961 -2.0526,0.92926 -3.0789,1.39389 -1.1528,0.50914 -2.2945,1.0444 -3.4585,1.5274 -1.2174,0.50514 -2.5057,0.84571 -3.684,1.43629 -0.3157,0.15824 -0.7932,0.4421 -1.2625,0.72038 -0.7376,-2.44289 -3.5003,-4.26252 -6.642,-2.48886 -1.0153,0.62096 -2.043,1.22208 -3.0458,1.8629 -2.8939,1.8492 -3.1844,2.30243 -6.2807,3.88418 -1.1465,0.58573 -2.3916,0.97065 -3.5187,1.59293 -2.1838,1.20561 -4.0174,2.98628 -6.281,4.06802 -0.8961,0.68234 -1.7726,1.39121 -2.6883,2.047 -0.8024,0.57467 -1.7083,1.0072 -2.4636,1.6426 -0.697,0.58638 -1.2438,1.33102 -1.8639,1.99821 -1.4595,1.5703 -2.7919,3.21843 -4.1164,4.90419 -3.8575,4.1675 0.1302,-0.33499 -3.8432,4.87909 -5.7892,7.59702 0.9795,-1.70617 -4.2428,4.91722 -0.4999,0.63402 -0.9146,1.33105 -1.3541,2.00831 -0.4239,0.65315 -0.8239,1.32154 -1.2359,1.9823 -2.4268,3.99978 -0.3591,0.1986 -2.0211,4.49362 -1.0807,2.79273 -3.1642,5.0119 -4.1342,7.85443 -0.2606,0.32622 -0.5758,0.61555 -0.7819,0.97869 -0.2345,0.41323 -0.3444,0.88576 -0.5256,1.32499 -1.262,3.05768 -2.3217,6.21857 -2.6223,9.53781 -0.5103,10.10275 0.4414,-3.47413 -1.4004,8.17221 -0.1644,1.03974 -0.029,2.10596 0.01,3.15794 0.04,1.12831 0.1117,2.25635 0.2253,3.37966 0.594,5.87236 0.5565,0.86216 0.2988,7.42578 0.4622,3.94493 0.1579,1.51689 0.7223,5.6155 0.1341,0.97427 0.1086,1.98351 0.398,2.92345 0.2475,0.80388 0.8732,1.4463 1.1875,2.2265 0.3569,0.88616 0.5441,1.83161 0.8161,2.74741 l 1.3893,3.08713 c 0.4316,1.24246 0.7585,2.52637 1.2947,3.72736 1.194,2.67422 2.9183,5.08489 4.1817,7.72704 0.6466,1.35229 1.0282,2.82817 1.7467,4.1437 0.6859,1.25587 3.0107,3.86272 3.9534,4.96401 0.71,0.86655 1.3406,1.80463 2.1297,2.59967 1.1628,1.17146 4.1468,3.26358 5.4108,4.17102 1.1402,0.81852 2.2501,1.68227 3.4312,2.44051 1.2942,0.83086 2.658,1.54796 3.987,2.32194 1.51,1.00273 3.0201,2.00548 4.5301,3.00821 1.4818,0.35275 2.9799,0.64256 4.4453,1.05819 1.996,0.56618 3.9507,1.26931 5.9319,1.88531 5.8565,1.82087 12.1553,3.97379 18.2289,4.90803 1.5283,0.23509 3.0822,0.25312 4.6233,0.37966 2.4548,0.0862 6.5573,0.2817 9.0469,0.17255 2.3825,-0.10445 8.1371,-0.8165 10.4576,-0.76782 1.6485,0.0346 3.2665,0.6073 4.9147,0.56049 1.51,-0.0429 2.9705,-0.55106 4.4557,-0.82662 1.3512,-0.62359 2.7655,-1.12551 4.0535,-1.87083 4.3719,-2.52985 5.6055,-4.26903 9.9701,-7.13424 2.143,-1.4068 4.6059,-2.32105 6.6374,-3.88448 2.5014,-1.925 3.7201,-5.20884 6.3018,-7.06764 0.9738,-1.21878 1.9421,-2.44199 2.9215,-3.65631 0.9583,-1.18816 1.994,-2.31631 2.8914,-3.55109 2.9834,-4.10506 4.959,-8.92703 8.5367,-12.61435 0.8405,-1.43777 2.9004,-4.82329 3.3756,-6.27898 1.1517,-3.52772 0.7072,-7.47232 2.5184,-10.8443 0.827,-2.44834 2.2077,-4.69891 2.9094,-7.18608 0.515,-1.82554 0.4737,-3.76388 0.7105,-5.64582 0.829,-3.04871 1.944,-6.10164 1.9081,-9.32274 -0.015,-1.36374 -0.3698,-2.70248 -0.5538,-4.05385 -0.2195,-1.61304 -0.3438,-3.24186 -0.6567,-4.83944 -3.2779,-16.74173 0.5346,6.90307 -2.2889,-11.55069 -0.9932,-3.31276 -1.1752,-4.65624 -2.8514,-7.60103 -3.6525,-6.41691 0.1423,1.24907 -4.3375,-5.1962 -0.7457,-1.07286 -1.1562,-2.34341 -1.7343,-3.51511 -0.71,-0.90794 -1.42,-1.81589 -2.1301,-2.72381 -0.6506,-0.8109 -1.2735,-1.64487 -1.9519,-2.4327 -1.1306,-1.3129 -3.8202,-4.11199 -4.9769,-5.28035 -0.9967,-1.00673 -1.9597,-2.0513 -3.025,-2.9852 -1.089,-0.95473 -2.2945,-1.76796 -3.4267,-2.67107 -1.2684,-1.01178 -2.5163,-2.04887 -3.7745,-3.0733 -1.2355,-0.92812 -2.3616,-2.02319 -3.7063,-2.78436 -2.6884,-1.52175 -4.8694,-1.57256 -7.7675,-2.43041 -1.3212,-0.39108 -2.5571,-1.0656 -3.9026,-1.3623 -2.6475,-0.58378 -5.4725,-0.0279 -8.0726,-0.99099 -1.5112,-0.0231 -3.0239,-8.2e-4 -4.5337,-0.0693 -1.896,-0.0859 -9.3796,-0.71187 -10.9703,-0.87695 -2.711,-0.28133 -4.6722,-0.81432 -6.9379,-0.67634 z m 9.7883,7.99557 c 0.9119,-0.0237 1.8247,-0.0158 2.7351,0.0191 3.4136,0.13087 5.6453,0.73111 8.9291,1.41737 9.0705,1.53838 -0.6672,-0.27452 7.5136,1.70224 1.1917,0.28798 2.4406,0.33261 3.6119,0.69514 1.1004,0.3406 2.0986,0.95098 3.1591,1.40068 4.6109,1.95519 1.1483,0.21838 5.9276,2.83342 3.5618,2.59565 3.0386,2.0883 6.246,4.89872 0.9118,0.79888 1.8882,1.53701 2.695,2.44177 0.8594,0.96389 2.8101,4.20971 3.583,5.28894 0.5837,0.815 1.2365,1.57815 1.8548,2.36723 3.1216,3.10911 5.3015,6.95663 7.4959,10.73115 0.4773,0.82114 1.0474,1.59143 1.4606,2.44663 0.5205,1.07695 0.8879,2.22133 1.3319,3.33199 2.5761,5.5443 2.4741,4.06996 3.0338,10.01595 0.1313,1.39482 0.2501,2.8029 0.1496,4.20028 -0.078,1.08993 -0.5705,2.11945 -0.6824,3.20646 -0.1191,1.15729 0.025,2.32728 -0.01,3.49024 -0.047,1.70706 -0.155,3.41193 -0.2326,5.11789 -1.0721,4.04252 -0.5385,8.36011 -1.5385,12.40504 -0.4856,1.96419 -1.3681,3.82477 -2.3287,5.60553 -0.6418,1.18975 -1.6193,2.1652 -2.4417,3.23804 -2.0043,2.61437 -1.4417,1.89679 -3.6246,4.28275 -0.6393,1.08313 -1.3315,2.13679 -1.918,3.24945 -0.605,1.14772 -1.0248,2.38846 -1.6522,3.52406 -0.199,0.36014 -3.9075,6.0806 -4.2121,6.56211 -3.3999,5.37343 -1.0212,1.94729 -4.869,7.17616 -4.3287,3.11696 -6.373,7.89413 -10.5295,11.28798 -1.7774,1.45124 -7.2631,4.45642 -9.817,5.11549 -1.0577,0.27297 -2.1833,0.0816 -3.2749,0.12251 -1.012,0.14805 -2.0275,0.27501 -3.0362,0.44416 -1.4196,0.23804 -2.815,0.63822 -4.2477,0.7773 -1.7491,0.16981 -3.5136,0.0888 -5.27,0.1466 -1.6519,0.0543 -3.3019,0.19808 -4.9547,0.18968 -1.4203,-0.008 -2.8356,-0.17014 -4.2544,-0.23646 -1.4635,-0.0684 -2.928,-0.11175 -4.392,-0.16763 -5.0706,-0.46065 -10.2226,-0.44567 -15.2257,-1.51575 -2.117,-0.4528 -4.2113,-1.03323 -6.2555,-1.74601 -4.1097,-1.43305 -5.3576,-2.30687 -8.84,-4.27843 -3.5927,-2.04761 -7.4509,-4.03102 -10.3586,-7.06109 -0.7197,-0.74999 -1.1897,-1.71045 -1.8778,-2.48951 -0.4262,-0.48251 -3.5,-3.21715 -3.9133,-3.58838 -0.9868,-1.8409 -1.4872,-2.97125 -2.8072,-4.62353 -0.8307,-1.0398 -1.8978,-1.88764 -2.6541,-2.98273 -2.0108,-2.91167 -3.3881,-7.11014 -4.5136,-10.46238 0.073,-1.85177 -1.4437,-3.24499 -1.7213,-4.97892 -0.1206,-0.75342 0.3104,-1.53209 0.1725,-2.28254 -0.167,-0.9082 -0.8985,-1.6497 -1.0624,-2.55846 -0.1572,-0.872 0.1526,-1.76992 0.1221,-2.65546 -0.025,-0.72197 -0.192,-1.43196 -0.2879,-2.14795 -1.047,-4.56682 -0.6948,-2.24333 -1.043,-6.71575 -0.082,-1.05765 -0.3547,-2.11682 -0.2513,-3.17264 0.09,-0.92123 0.7425,-1.73027 0.8216,-2.65252 0.9975,-11.62762 -1.6914,3.32151 0.3839,-7.06066 0.4912,-0.71622 1.0826,-1.37318 1.4738,-2.14861 1.9225,-3.81122 -0.9102,0.25339 1.0474,-2.8903 0.2608,-0.4188 0.6333,-0.76009 0.8995,-1.17551 0.559,-0.87242 0.9649,-1.91887 1.3735,-2.86117 0.5007,-2.01047 1.5558,-3.80199 2.3537,-5.69056 0.311,-0.73627 0.4483,-1.54705 0.8284,-2.25018 0.3387,-0.62661 0.9104,-1.09938 1.3034,-1.69346 0.4041,-0.6109 0.7214,-1.27496 1.0822,-1.91245 2.6965,-5.18235 -0.9066,1.63463 2.0702,-3.64022 1.3752,-2.43685 1.1037,-2.56028 2.9715,-4.87945 0.6135,-0.76181 3.0567,-3.20601 3.8597,-4.01919 2.3529,-2.20641 0.5456,-0.41926 2.7797,-2.90099 0.4647,-0.51617 0.9695,-0.99589 1.4234,-1.52158 0.5585,-0.64689 1.002,-1.39513 1.6118,-1.99389 0.6202,-0.6089 1.3899,-1.04534 2.0543,-1.60566 0.7008,-0.59105 1.3591,-1.23076 2.0387,-1.84615 0.7375,-0.71854 1.3409,-1.60745 2.2125,-2.15569 0.8814,-0.55436 2.0153,-0.58793 2.9291,-1.08542 -0.3256,3.9336 4.6457,7.2659 8.374,3.48802 h 10e-5 c 0.7458,-1.11509 1.3545,-2.33525 2.2374,-3.34531 1.9504,-2.23141 3.6413,-3.05759 6.1707,-4.44455 1.9939,-1.09332 4.2165,-2.26077 6.366,-3.04436 1.0219,-0.3725 2.0843,-0.62279 3.1264,-0.93418 3.2602,-0.0416 6.3318,-1.30791 9.5513,-1.63364 0.9064,-0.0917 1.8173,-0.14705 2.7291,-0.17076 z m 7.5683,41.79914 c -2.7223,0.10713 -5.3521,2.41293 -4.5226,6.17495 0.3243,0.93982 0.769,1.84635 0.9728,2.81943 0.083,0.39808 0.1219,0.80307 0.1451,1.20998 -1.0403,1.28446 -1.5128,3.11252 -0.8707,5.3266 2.5375,1.46343 4.6911,4.60408 7.6125,4.39032 3.3328,-0.24387 3.7153,-4.6622 3.2592,-6.93894 -0.1738,-0.86756 -0.5054,-1.69707 -0.7047,-2.55912 -0.697,-3.01364 -0.6319,-3.27884 -0.9558,-6.33382 -0.6452,-2.92602 -2.8185,-4.17272 -4.9358,-4.0894 z m -33.6983,1.58476 c -2.4725,-0.0949 -5.016,1.67489 -4.8407,5.16966 0.1447,4.31923 0.086,2.20293 0.1801,6.34871 -0.1309,6.33683 8.8308,6.52188 8.9617,0.18505 -0.018,-4.56336 -0.066,-2.22981 0.1615,-7.00037 -0.1547,-3.08362 -2.281,-4.61925 -4.4626,-4.70305 z m 30.3413,11.52527 c -0.013,0.17134 -0.033,0.34182 -0.067,0.51028 -0.042,0.20462 -0.2759,0.31335 -0.4139,0.47004 0.1834,-0.29208 0.3385,-0.62696 0.4813,-0.98032 z m -10.8775,20.33564 c -0.7315,-0.0265 -1.4574,0.0223 -2.1637,0.19363 -2.7934,0.67742 -5.2077,2.4347 -7.8115,3.65205 -3.4181,1.59197 -9.4175,3.98538 -12.3525,6.75983 -3.0069,2.84232 -3.8206,5.76236 -5.3189,9.37397 -1.6956,5.47648 6.0494,7.87447 7.745,2.39797 0.1926,-0.99344 0.2524,-2.0221 0.5779,-2.98027 0.8037,-2.36609 2.9325,-6.17115 4.8323,-7.63617 1.7704,-1.3652 4.0049,-1.98825 6.0073,-2.98238 0.3461,-0.0631 8.8339,-1.74041 10.3761,-1.64691 5.3964,0.32717 10.5198,3.43115 13.549,7.87922 0.6327,0.92912 0.7029,2.13548 1.0543,3.20322 1.0384,6.60101 10.3737,5.13252 9.3353,-1.46848 -1.4368,-1.86839 -2.6547,-3.9277 -4.3104,-5.60521 -1.7555,-1.77867 -3.8303,-3.21709 -5.8499,-4.68912 -4.2513,-3.09881 -6.813,-4.8264 -12.0301,-5.90756 -1.1861,-0.24582 -2.421,-0.49955 -3.6402,-0.54379 z" /></g><g
         id="g68"><rect
           style="fill:#ff6164;fill-opacity:1;stroke-width:0.6;stroke-linecap:square;paint-order:markers stroke fill"
           id="rect64"
           width="200"
           height="200"
           x="1080.9093"
           y="271.49759"
           rx="0"
           ry="0" /><path
           id="path29"
           style="fill:#040080;fill-opacity:1;stroke-width:0.600001;stroke-linecap:square;paint-order:markers stroke fill"
           d="m 1178.6248,298.89059 c -0.7552,0.046 -1.5442,0.16652 -2.4061,0.39579 -1.0887,0.28961 -2.0526,0.92926 -3.0788,1.39389 -1.1529,0.50914 -2.2945,1.0444 -3.4585,1.5274 -1.2174,0.50514 -2.5057,0.84571 -3.684,1.43629 -0.3158,0.15825 -0.7933,0.44215 -1.2625,0.72043 -0.7376,-2.44292 -3.5004,-4.26258 -6.6421,-2.48891 -1.0153,0.62096 -2.0429,1.22208 -3.0458,1.8629 -2.8938,1.8492 -3.1843,2.30243 -6.2806,3.88418 -1.1466,0.58573 -2.3916,0.97065 -3.5188,1.59293 -2.1837,1.20561 -4.0174,2.98628 -6.281,4.06802 -0.8961,0.68234 -1.7726,1.39121 -2.6883,2.047 -0.8024,0.57467 -1.7083,1.0072 -2.4635,1.6426 -0.697,0.58638 -1.2439,1.33102 -1.864,1.99821 -1.4594,1.5703 -2.792,3.21843 -4.1164,4.90419 -3.8575,4.1675 0.1302,-0.33499 -3.8431,4.87909 -5.7893,7.59702 0.9794,-1.70617 -4.2429,4.91722 -0.4999,0.63402 -0.9145,1.33105 -1.3541,2.00831 -0.4239,0.65315 -0.8239,1.32154 -1.2359,1.9823 -2.4268,3.99978 -0.3591,0.1986 -2.0211,4.49362 -1.0806,2.79273 -3.1642,5.0119 -4.1342,7.85443 -0.2606,0.32622 -0.5757,0.61555 -0.7818,0.97869 -0.2346,0.41323 -0.3445,0.88576 -0.5258,1.32499 -1.2619,3.05768 -2.3215,6.21857 -2.6222,9.53781 -0.5102,10.10275 0.4414,-3.47413 -1.4004,8.17221 -0.1644,1.03974 -0.029,2.10596 0.01,3.15794 0.04,1.12831 0.1118,2.25635 0.2254,3.37966 0.5939,5.87236 0.5564,0.86216 0.2987,7.42578 0.4622,3.94493 0.1579,1.51689 0.7222,5.6155 0.1342,0.97427 0.1087,1.98351 0.3981,2.92345 0.2475,0.80388 0.8732,1.4463 1.1875,2.2265 0.3569,0.88616 0.544,1.83161 0.8161,2.74741 0.4631,1.02905 0.9263,2.05808 1.3894,3.08713 0.4315,1.24246 0.7583,2.52637 1.2946,3.72736 1.194,2.67422 2.9183,5.08489 4.1817,7.72704 0.6466,1.35229 1.0282,2.82817 1.7467,4.1437 0.6859,1.25587 3.0106,3.86272 3.9534,4.96401 0.7099,0.86655 1.3406,1.80463 2.1298,2.59967 1.1628,1.17146 4.1468,3.26358 5.4108,4.17102 1.1401,0.81852 2.25,1.68227 3.4311,2.44051 1.2942,0.83086 2.658,1.54796 3.987,2.32194 1.51,1.00273 3.0201,2.00548 4.5301,3.00821 1.4817,0.35275 2.9799,0.64256 4.4453,1.05819 1.9961,0.56618 3.9507,1.26931 5.932,1.88531 5.8564,1.82087 12.1552,3.97379 18.2288,4.90803 1.5284,0.23509 3.0822,0.25312 4.6233,0.37966 2.4548,0.0862 6.5573,0.2817 9.0469,0.17255 2.3826,-0.10445 8.1371,-0.8165 10.4576,-0.76782 1.6485,0.0346 3.2665,0.6073 4.9147,0.56049 1.51,-0.0429 2.9705,-0.55106 4.4558,-0.82662 1.3511,-0.62359 2.7654,-1.12551 4.0534,-1.87083 4.3719,-2.52985 5.6055,-4.26903 9.9701,-7.13424 2.143,-1.4068 4.6059,-2.32105 6.6375,-3.88448 2.5014,-1.925 3.72,-5.20884 6.3018,-7.06764 0.9738,-1.21878 1.9421,-2.44199 2.9214,-3.65631 0.9583,-1.18816 1.994,-2.31631 2.8914,-3.55109 2.9834,-4.10506 4.959,-8.92703 8.5367,-12.61435 0.8406,-1.43777 2.9005,-4.82329 3.3757,-6.27898 1.1516,-3.52772 0.7071,-7.47232 2.5183,-10.8443 0.827,-2.44834 2.2078,-4.69891 2.9094,-7.18608 0.515,-1.82554 0.4737,-3.76388 0.7105,-5.64582 0.829,-3.04871 1.944,-6.10164 1.9081,-9.32274 -0.015,-1.36374 -0.3698,-2.70248 -0.5537,-4.05385 -0.2196,-1.61304 -0.344,-3.24186 -0.6568,-4.83944 -3.2779,-16.74173 0.5347,6.90307 -2.2888,-11.55069 -0.9933,-3.31276 -1.1754,-4.65624 -2.8515,-7.60103 -3.6525,-6.41691 0.1423,1.24907 -4.3375,-5.1962 -0.7457,-1.07286 -1.1562,-2.34341 -1.7343,-3.51511 -0.71,-0.90794 -1.42,-1.81589 -2.13,-2.72381 -0.6507,-0.8109 -1.2736,-1.64487 -1.952,-2.4327 -1.1305,-1.3129 -3.8202,-4.11199 -4.9769,-5.28035 -0.9966,-1.00673 -1.9597,-2.0513 -3.0249,-2.9852 -1.089,-0.95473 -2.2946,-1.76796 -3.4267,-2.67107 -1.2684,-1.01178 -2.5164,-2.04887 -3.7746,-3.0733 -1.2354,-0.92812 -2.3616,-2.02319 -3.7063,-2.78436 -2.6884,-1.52175 -4.8694,-1.57256 -7.7674,-2.43041 -1.3212,-0.39108 -2.5571,-1.0656 -3.9027,-1.3623 -2.6474,-0.58378 -5.4725,-0.0279 -8.0726,-0.99099 -1.5112,-0.0231 -3.0238,-8.2e-4 -4.5337,-0.0693 -1.896,-0.0859 -9.3795,-0.71187 -10.9703,-0.87695 -2.711,-0.28133 -4.6722,-0.81432 -6.9379,-0.67634 z m 9.7883,7.99557 c 0.9119,-0.0237 1.8247,-0.0158 2.7351,0.0191 3.4136,0.13087 5.6453,0.73111 8.9291,1.41737 9.0705,1.53838 -0.6672,-0.27452 7.5135,1.70224 1.1918,0.28798 2.4407,0.33261 3.612,0.69514 1.1004,0.3406 2.0986,0.95098 3.1591,1.40068 4.6109,1.95519 1.1484,0.21838 5.9276,2.83342 3.5618,2.59565 3.0386,2.0883 6.246,4.89872 0.9118,0.79888 1.8883,1.53701 2.695,2.44177 0.8595,0.96389 2.8102,4.20971 3.5831,5.28894 0.5836,0.815 1.2365,1.57815 1.8547,2.36723 3.1217,3.10911 5.3016,6.95663 7.4959,10.73115 0.4774,0.82114 1.0474,1.59143 1.4606,2.44663 0.5205,1.07695 0.888,2.22133 1.3319,3.33199 2.5762,5.5443 2.4741,4.06996 3.0338,10.01595 0.1313,1.39482 0.2501,2.8029 0.1496,4.20028 -0.078,1.08993 -0.5704,2.11945 -0.6823,3.20646 -0.1191,1.15729 0.025,2.32728 -0.01,3.49024 -0.048,1.70706 -0.1551,3.41193 -0.2327,5.11789 -1.0721,4.04252 -0.5384,8.36011 -1.5384,12.40504 -0.4856,1.96419 -1.3682,3.82477 -2.3288,5.60553 -0.6418,1.18975 -1.6193,2.1652 -2.4417,3.23804 -2.0043,2.61437 -1.4416,1.89679 -3.6245,4.28275 -0.6394,1.08313 -1.3316,2.13679 -1.9181,3.24945 -0.605,1.14772 -1.0248,2.38846 -1.6522,3.52406 -0.199,0.36014 -3.9075,6.0806 -4.2121,6.56211 -3.3999,5.37343 -1.0212,1.94729 -4.869,7.17616 -4.3287,3.11696 -6.3729,7.89413 -10.5294,11.28798 -1.7774,1.45124 -7.2632,4.45642 -9.8171,5.11549 -1.0577,0.27297 -2.1833,0.0816 -3.2749,0.12251 -1.0121,0.14805 -2.0274,0.27501 -3.0361,0.44416 -1.4196,0.23804 -2.815,0.63822 -4.2477,0.7773 -1.7492,0.16981 -3.5136,0.0888 -5.2701,0.1466 -1.6518,0.0543 -3.3019,0.19808 -4.9546,0.18968 -1.4204,-0.008 -2.8357,-0.17014 -4.2545,-0.23646 -1.4635,-0.0684 -2.928,-0.11175 -4.392,-0.16763 -5.0707,-0.46065 -10.2225,-0.44567 -15.2256,-1.51575 -2.117,-0.4528 -4.2114,-1.03323 -6.2555,-1.74601 -4.1097,-1.43305 -5.3577,-2.30687 -8.8401,-4.27843 -3.5927,-2.04761 -7.4509,-4.03102 -10.3586,-7.06109 -0.7196,-0.74999 -1.1897,-1.71045 -1.8778,-2.48951 -0.4262,-0.48251 -3.5,-3.21715 -3.9133,-3.58838 -0.9868,-1.8409 -1.4873,-2.97125 -2.8072,-4.62353 -0.8307,-1.0398 -1.8977,-1.88764 -2.654,-2.98273 -2.0108,-2.91167 -3.3882,-7.11014 -4.5137,-10.46238 0.073,-1.85177 -1.4437,-3.24499 -1.7213,-4.97892 -0.1206,-0.75342 0.3105,-1.53209 0.1725,-2.28254 -0.1669,-0.9082 -0.8984,-1.6497 -1.0623,-2.55846 -0.1573,-0.872 0.1526,-1.76992 0.122,-2.65546 -0.025,-0.72197 -0.1919,-1.43196 -0.2879,-2.14795 -1.0469,-4.56682 -0.6947,-2.24333 -1.0429,-6.71575 -0.082,-1.05765 -0.3548,-2.11682 -0.2514,-3.17264 0.09,-0.92123 0.7425,-1.73027 0.8217,-2.65252 0.9974,-11.62762 -1.6915,3.32151 0.3838,-7.06066 0.4913,-0.71622 1.0827,-1.37318 1.4738,-2.14861 1.9226,-3.81122 -0.9102,0.25339 1.0475,-2.8903 0.2608,-0.4188 0.6332,-0.76009 0.8994,-1.17551 0.559,-0.87242 0.9649,-1.91887 1.3735,-2.86117 0.5007,-2.01047 1.5559,-3.80199 2.3538,-5.69056 0.311,-0.73627 0.4483,-1.54705 0.8284,-2.25018 0.3387,-0.62661 0.9103,-1.09938 1.3033,-1.69346 0.4042,-0.6109 0.7215,-1.27496 1.0822,-1.91245 2.6965,-5.18235 -0.9065,1.63463 2.0702,-3.64022 1.3752,-2.43685 1.1038,-2.56028 2.9715,-4.87945 0.6136,-0.76181 3.0567,-3.20601 3.8597,-4.01919 2.3529,-2.20641 0.5456,-0.41926 2.7797,-2.90099 0.4647,-0.51617 0.9696,-0.99589 1.4234,-1.52158 0.5585,-0.64689 1.002,-1.39513 1.6118,-1.99389 0.6202,-0.6089 1.39,-1.04534 2.0544,-1.60566 0.7008,-0.59105 1.359,-1.23076 2.0386,-1.84615 0.7375,-0.71854 1.341,-1.60745 2.2126,-2.15569 0.8813,-0.55435 2.0152,-0.58796 2.929,-1.08542 -0.3256,3.9336 4.6458,7.2659 8.374,3.48802 h 10e-5 c 0.7458,-1.11509 1.3546,-2.33525 2.2375,-3.34531 1.9503,-2.23141 3.6412,-3.05759 6.1706,-4.44455 1.9939,-1.09332 4.2165,-2.26077 6.366,-3.04436 1.0219,-0.3725 2.0844,-0.62279 3.1265,-0.93418 3.2602,-0.0416 6.3317,-1.30791 9.5512,-1.63364 0.9064,-0.0917 1.8173,-0.14705 2.7291,-0.17076 z m 6.1111,41.79914 c -2.7223,0.10713 -5.3521,2.41293 -4.5226,6.17495 0.3243,0.93982 0.769,1.84635 0.9728,2.81943 0.083,0.39808 0.1219,0.80307 0.1451,1.20998 -1.0403,1.28446 -1.5128,3.11252 -0.8707,5.3266 2.5375,1.46343 4.6911,4.60408 7.6125,4.39032 3.3328,-0.24387 3.7153,-4.6622 3.2592,-6.93894 -0.1738,-0.86756 -0.5054,-1.69707 -0.7047,-2.55912 -0.697,-3.01364 -0.6319,-3.27884 -0.9558,-6.33382 -0.6452,-2.92602 -2.8185,-4.17272 -4.9358,-4.0894 z m -33.6983,1.58476 c -2.4725,-0.0949 -5.016,1.67489 -4.8407,5.16966 0.1446,4.31923 0.086,2.20293 0.1801,6.34871 -0.1309,6.33683 8.8308,6.52188 8.9617,0.18505 -0.017,-4.56336 -0.066,-2.22981 0.1615,-7.00037 -0.1547,-3.08362 -2.281,-4.61925 -4.4626,-4.70305 z m 30.3413,11.52534 c -0.013,0.17131 -0.033,0.34177 -0.067,0.51021 -0.042,0.20462 -0.276,0.31335 -0.4139,0.47004 0.1834,-0.29206 0.3384,-0.62692 0.4813,-0.98025 z m 11.0706,20.33094 c -1.647,-0.0528 -3.3343,0.87238 -4.0231,3.09721 -0.1927,0.99344 -0.2524,2.02216 -0.5779,2.98032 -0.8037,2.36609 -2.9325,6.17116 -4.8323,7.63617 -1.7704,1.36521 -4.0049,1.9882 -6.0074,2.98232 -0.346,0.0631 -8.8338,1.74043 -10.376,1.64692 -5.3965,-0.32718 -10.5198,-3.43108 -13.549,-7.87917 -0.6327,-0.92911 -0.7029,-2.13554 -1.0544,-3.20328 -1.0384,-6.60099 -10.3736,-5.13245 -9.3352,1.46855 1.4368,1.8684 2.6548,3.92771 4.3104,5.60522 1.7555,1.77865 3.8303,3.21708 5.8498,4.68911 4.2514,3.09881 6.8131,4.82639 12.0302,5.90756 1.8978,0.3933 3.9203,0.80693 5.8039,0.35016 2.7934,-0.67742 5.2077,-2.43469 7.8115,-3.65205 3.418,-1.59197 9.4175,-3.98544 12.3526,-6.75988 3.0068,-2.84233 3.8205,-5.76237 5.3188,-9.37397 1.0067,-3.25168 -1.3147,-5.41801 -3.7219,-5.49519 z" /></g><g
         id="g69"
         transform="translate(-79.466187,-89.388031)"><rect
           style="fill:#2bb700;fill-opacity:1;stroke-width:0.6;stroke-linecap:square;paint-order:markers stroke fill"
           id="rect67"
           width="200"
           height="200"
           x="1360.3755"
           y="560.88562"
           rx="0"
           ry="0" /><path
           id="path48"
           style="fill:#ffd10f;fill-opacity:1;stroke-width:0.600001;stroke-linecap:square;paint-order:markers stroke fill"
           d="m 1458.091,588.2786 c -0.7552,0.046 -1.5443,0.16658 -2.4062,0.39586 -1.0887,0.28961 -2.0525,0.92926 -3.0787,1.39389 -1.1529,0.50913 -2.2945,1.04439 -3.4586,1.5274 -1.2174,0.50514 -2.5057,0.84569 -3.684,1.43629 -0.3157,0.15824 -0.7932,0.44215 -1.2624,0.72043 -0.7376,-2.44295 -3.5004,-4.26266 -6.6422,-2.48898 -1.0152,0.62096 -2.0428,1.22208 -3.0457,1.8629 -2.8939,1.84921 -3.1844,2.30243 -6.2806,3.88418 -1.1466,0.58573 -2.3917,0.9707 -3.5188,1.59299 -2.1837,1.20559 -4.0174,2.98627 -6.281,4.06803 -0.8961,0.68232 -1.7726,1.39121 -2.6883,2.04699 -0.8024,0.57469 -1.7083,1.00713 -2.4636,1.64253 -0.697,0.58639 -1.2438,1.33104 -1.8639,1.99822 -1.4595,1.5703 -2.792,3.21849 -4.1164,4.90425 -3.8576,4.16749 0.1302,-0.33498 -3.8431,4.87909 -5.7893,7.59703 0.9794,-1.70623 -4.2429,4.91716 -0.4999,0.63403 -0.9146,1.33111 -1.3541,2.00837 -0.4239,0.65314 -0.8239,1.32154 -1.2359,1.9823 -2.4269,3.99978 -0.3591,0.1986 -2.0211,4.49362 -1.0806,2.79273 -3.1642,5.01185 -4.1342,7.85437 -0.2606,0.32622 -0.5758,0.61556 -0.7819,0.97869 -0.2345,0.41324 -0.3444,0.88584 -0.5257,1.32506 -1.2619,3.05766 -2.3215,6.2185 -2.6222,9.53775 -0.5102,10.10275 0.4414,-3.47407 -1.4004,8.17227 -0.1644,1.03972 -0.029,2.10594 0.01,3.15792 0.04,1.12834 0.1117,2.25636 0.2254,3.37967 0.5939,5.87236 0.5564,0.86215 0.2987,7.42579 0.4622,3.94492 0.1578,1.51682 0.7222,5.61543 0.1342,0.97427 0.1087,1.98357 0.3981,2.9235 0.2475,0.80388 0.8732,1.44626 1.1875,2.22645 0.3569,0.88617 0.544,1.83161 0.8161,2.74742 l 1.3893,3.08711 c 0.4316,1.24246 0.7584,2.52643 1.2947,3.72743 1.194,2.67422 2.9183,5.08484 4.1817,7.72698 0.6466,1.35229 1.0282,2.82823 1.7467,4.14376 0.6859,1.25588 3.0106,3.86266 3.9534,4.96395 0.7099,0.86656 1.3406,1.80462 2.1298,2.59967 1.1628,1.17147 4.1467,3.26364 5.4107,4.17109 1.1401,0.8185 2.2501,1.6822 3.4312,2.44044 1.2942,0.83087 2.658,1.54796 3.987,2.32195 1.51,1.00272 3.0201,2.00547 4.5301,3.00819 1.4817,0.35276 2.9799,0.64262 4.4453,1.05828 1.996,0.56617 3.9507,1.2693 5.932,1.8853 5.8564,1.82087 12.1552,3.97378 18.2288,4.90802 1.5283,0.2351 3.0822,0.25306 4.6233,0.37959 2.4548,0.0862 6.5573,0.28171 9.0468,0.17256 2.3826,-0.10445 8.1372,-0.81643 10.4577,-0.76775 1.6485,0.0346 3.2665,0.60729 4.9147,0.56048 1.51,-0.0429 2.9705,-0.55111 4.4558,-0.82667 1.3511,-0.62361 2.7654,-1.12546 4.0534,-1.87077 4.3719,-2.52986 5.6055,-4.26904 9.9701,-7.13425 2.143,-1.40679 4.6059,-2.32105 6.6374,-3.88448 2.5015,-1.925 3.7201,-5.20884 6.3018,-7.06763 0.9739,-1.21879 1.9421,-2.44205 2.9215,-3.65637 0.9583,-1.18816 1.994,-2.31625 2.8914,-3.55103 2.9834,-4.10506 4.959,-8.92704 8.5367,-12.61436 0.8406,-1.43776 2.9004,-4.8233 3.3757,-6.27898 1.1516,-3.52772 0.7071,-7.47231 2.5183,-10.84431 0.827,-2.44833 2.2078,-4.69896 2.9094,-7.18613 0.515,-1.82554 0.4737,-3.76388 0.7105,-5.64583 0.829,-3.0487 1.9439,-6.10163 1.9081,-9.32273 -0.015,-1.36373 -0.3698,-2.70241 -0.5537,-4.05379 -0.2196,-1.61304 -0.344,-3.24185 -0.6568,-4.83945 -3.2779,-16.74172 0.5347,6.90301 -2.2888,-11.55072 -0.9933,-3.31278 -1.1754,-4.65625 -2.8515,-7.60105 -3.6525,-6.4169 0.1423,1.24907 -4.3375,-5.19621 -0.7457,-1.07284 -1.1562,-2.3434 -1.7343,-3.51511 -0.71,-0.90793 -1.42,-1.81582 -2.1301,-2.72375 -0.6506,-0.81089 -1.2736,-1.64486 -1.952,-2.43269 -1.1305,-1.31289 -3.8202,-4.11205 -4.9768,-5.28041 -0.9967,-1.00674 -1.9597,-2.0513 -3.0249,-2.98519 -1.089,-0.95473 -2.2946,-1.76791 -3.4267,-2.67103 -1.2684,-1.01176 -2.5165,-2.04886 -3.7747,-3.07329 -1.2354,-0.92811 -2.3615,-2.0232 -3.7062,-2.78436 -2.6884,-1.52173 -4.8695,-1.57257 -7.7675,-2.43041 -1.3212,-0.39108 -2.5571,-1.06566 -3.9026,-1.36235 -2.6475,-0.58378 -5.4725,-0.0279 -8.0726,-0.991 -1.5112,-0.0231 -3.0238,-9.6e-4 -4.5337,-0.0692 -1.896,-0.0858 -9.3795,-0.71193 -10.9703,-0.87701 -2.711,-0.28133 -4.6722,-0.81432 -6.9379,-0.67634 z m 9.7883,7.99556 c 0.9118,-0.0237 1.8247,-0.0157 2.735,0.0192 3.4137,0.13087 5.6454,0.73111 8.9292,1.41737 9.0705,1.53839 -0.6672,-0.27452 7.5135,1.70223 1.1918,0.28797 2.4407,0.33263 3.6119,0.69516 1.1004,0.3406 2.0987,0.95091 3.1592,1.4006 4.6108,1.9552 1.1484,0.21837 5.9276,2.83343 3.5618,2.59565 3.0386,2.08836 6.246,4.89879 0.9117,0.79887 1.8882,1.537 2.695,2.44175 0.8595,0.9639 2.8102,4.20967 3.583,5.28889 0.5837,0.815 1.2366,1.57815 1.8548,2.36723 3.1217,3.10912 5.3016,6.95669 7.4959,10.7312 0.4774,0.82115 1.0473,1.59139 1.4606,2.44658 0.5204,1.07696 0.888,2.22134 1.3319,3.33199 2.5761,5.5443 2.474,4.06997 3.0337,10.01595 0.1313,1.39482 0.2502,2.80295 0.1497,4.20034 -0.078,1.08993 -0.5705,2.1194 -0.6823,3.20639 -0.1192,1.15729 0.025,2.3273 -0.01,3.49026 -0.047,1.70705 -0.1552,3.41192 -0.2327,5.11788 -1.0721,4.0425 -0.5385,8.36018 -1.5385,12.4051 -0.4856,1.96419 -1.3682,3.82471 -2.3288,5.60545 -0.6418,1.18977 -1.6192,2.16522 -2.4417,3.23807 -2.0042,2.61437 -1.4415,1.89683 -3.6245,4.2828 -0.6393,1.08314 -1.3316,2.13673 -1.9181,3.2494 -0.6049,1.14772 -1.0247,2.38851 -1.6522,3.5241 -0.1989,0.36015 -3.9074,6.08061 -4.2121,6.56212 -3.3998,5.37343 -1.0211,1.94731 -4.8689,7.17616 -4.3287,3.11696 -6.373,7.89412 -10.5295,11.28797 -1.7773,1.45125 -7.2631,4.45637 -9.8169,5.11544 -1.0578,0.27297 -2.1834,0.0817 -3.275,0.12258 -1.0121,0.14804 -2.0274,0.27494 -3.0361,0.44409 -1.4196,0.23804 -2.8151,0.63823 -4.2477,0.7773 -1.7492,0.1698 -3.5137,0.0888 -5.2701,0.1466 -1.6519,0.0543 -3.3019,0.19809 -4.9546,0.18968 -1.4204,-0.008 -2.8358,-0.17014 -4.2546,-0.23646 -1.4634,-0.0684 -2.9279,-0.11175 -4.3919,-0.16763 -5.0707,-0.46065 -10.2226,-0.44561 -15.2257,-1.51569 -2.117,-0.4528 -4.2113,-1.03323 -6.2555,-1.74602 -4.1097,-1.43303 -5.3576,-2.30693 -8.84,-4.27848 -3.5928,-2.04762 -7.4509,-4.03096 -10.3586,-7.06103 -0.7197,-0.74998 -1.1898,-1.71043 -1.8778,-2.48951 -0.4262,-0.48252 -3.5001,-3.21722 -3.9134,-3.58845 -0.9867,-1.84089 -1.4872,-2.97118 -2.8071,-4.62347 -0.8307,-1.0398 -1.8978,-1.88764 -2.6541,-2.98272 -2.0108,-2.91167 -3.3882,-7.11021 -4.5136,-10.46245 0.073,-1.85175 -1.4438,-3.24492 -1.7213,-4.97884 -0.1206,-0.75344 0.3104,-1.5321 0.1725,-2.28256 -0.167,-0.90818 -0.8985,-1.6497 -1.0624,-2.55846 -0.1572,-0.872 0.1527,-1.76991 0.1221,-2.65546 -0.025,-0.72196 -0.1919,-1.432 -0.2879,-2.148 -1.047,-4.5668 -0.6947,-2.24328 -1.0429,-6.71568 -0.082,-1.05765 -0.3548,-2.11684 -0.2515,-3.17264 0.09,-0.92124 0.7426,-1.73029 0.8217,-2.65253 0.9975,-11.62762 -1.6914,3.3215 0.3839,-7.06066 0.4913,-0.71623 1.0827,-1.37323 1.4738,-2.14866 1.9225,-3.81123 -0.9102,0.25339 1.0475,-2.89031 0.2608,-0.41881 0.6332,-0.76003 0.8994,-1.17545 0.559,-0.87242 0.9649,-1.91893 1.3734,-2.86122 0.5008,-2.01047 1.556,-3.80194 2.3538,-5.69052 0.3111,-0.73626 0.4484,-1.54711 0.8284,-2.25021 0.3388,-0.62662 0.9104,-1.09934 1.3034,-1.69342 0.4042,-0.61088 0.7214,-1.27501 1.0822,-1.91251 2.6965,-5.18235 -0.9065,1.63462 2.0702,-3.64021 1.3752,-2.43686 1.1037,-2.56022 2.9715,-4.87939 0.6136,-0.76182 3.0566,-3.20608 3.8596,-4.01926 2.353,-2.20642 0.5457,-0.41919 2.7798,-2.90093 0.4647,-0.51617 0.9695,-0.99594 1.4234,-1.52164 0.5585,-0.64688 1.0019,-1.39513 1.6118,-1.99389 0.6202,-0.6089 1.39,-1.04534 2.0543,-1.60566 0.7009,-0.59104 1.3591,-1.23076 2.0386,-1.84614 0.7376,-0.71855 1.3411,-1.6074 2.2127,-2.15565 0.8813,-0.55434 2.0152,-0.58794 2.9289,-1.0854 -0.3255,3.93358 4.6458,7.26582 8.3741,3.48795 h 10e-5 c 0.7458,-1.11509 1.3546,-2.33518 2.2374,-3.34525 1.9504,-2.23142 3.6413,-3.05758 6.1707,-4.44455 1.9939,-1.09332 4.2164,-2.26084 6.366,-3.04442 1.0219,-0.37251 2.0843,-0.62273 3.1265,-0.93412 3.2602,-0.0416 6.3317,-1.30792 9.5512,-1.63365 0.9064,-0.0917 1.8172,-0.1471 2.7291,-0.17082 z m 6.111,41.79921 c -2.7222,0.10713 -5.352,2.41286 -4.5225,6.1749 0.3243,0.9398 0.769,1.84641 0.9728,2.81948 0.083,0.39808 0.1219,0.80306 0.145,1.20997 -1.0402,1.28448 -1.5127,3.11248 -0.8706,5.32656 2.5375,1.46343 4.691,4.60407 7.6125,4.3903 3.3328,-0.24387 3.7153,-4.66214 3.2592,-6.93887 -0.1738,-0.86756 -0.5053,-1.69713 -0.7047,-2.55918 -0.697,-3.01365 -0.6319,-3.27877 -0.9559,-6.33375 -0.6451,-2.92602 -2.8184,-4.17272 -4.9358,-4.08941 z m -33.6982,1.5847 c -2.4725,-0.0949 -5.016,1.6749 -4.8407,5.16966 0.1446,4.31923 0.086,2.20299 0.1801,6.34878 -0.1309,6.33683 8.8308,6.52188 8.9616,0.18504 -0.018,-4.56334 -0.066,-2.2298 0.1615,-7.00038 -0.1546,-3.08362 -2.2809,-4.61929 -4.4625,-4.7031 z m 30.3413,11.52534 c -0.013,0.17134 -0.033,0.34176 -0.067,0.51022 -0.042,0.2046 -0.276,0.31339 -0.414,0.47008 0.1834,-0.29206 0.3385,-0.62697 0.4814,-0.9803 z m 18.2287,26.72404 c -9.9007,1.04988 1.2387,-0.47446 -11.67,2.86579 -3.1726,0.82093 -6.4031,1.41607 -9.6385,1.93708 -7.5508,1.21599 -15.184,1.98749 -22.7425,0.42673 -7.0907,0.14497 -6.8857,10.17269 0.205,10.02772 11.4015,-0.85478 21.9619,-5.86657 33.2832,-7.23652 6.9753,-0.84403 5.6089,-1.19354 9.2874,1.38805 6.6531,0.90184 7.9284,-8.50703 1.2754,-9.40885 z" /></g><g
         id="g70"
         transform="translate(24.684326,-89.388031)"><rect
           style="fill:#040080;fill-opacity:1;stroke-width:0.6;stroke-linecap:square;paint-order:markers stroke fill"
           id="rect66"
           width="200"
           height="200"
           x="1056.225"
           y="560.88562"
           rx="0"
           ry="0" /><path
           id="path39"
           style="fill:#2bb700;fill-opacity:1;stroke-width:0.600001;stroke-linecap:square;paint-order:markers stroke fill"
           d="m 1153.9405,588.2786 c -0.7552,0.046 -1.5442,0.16658 -2.4061,0.39586 -1.0887,0.28961 -2.0525,0.92926 -3.0788,1.39389 -1.1528,0.50913 -2.2945,1.04439 -3.4585,1.5274 -1.2174,0.50514 -2.5057,0.84569 -3.684,1.43629 -0.3157,0.15824 -0.7932,0.44214 -1.2625,0.72043 -0.7376,-2.44295 -3.5004,-4.26266 -6.6421,-2.48898 -1.0152,0.62096 -2.0429,1.22208 -3.0457,1.8629 -2.8939,1.84921 -3.1844,2.30243 -6.2807,3.88418 -1.1466,0.58573 -2.3916,0.9707 -3.5188,1.59299 -2.1837,1.20559 -4.0173,2.98627 -6.2809,4.06803 -0.8961,0.68232 -1.7726,1.39121 -2.6883,2.04699 -0.8025,0.57469 -1.7083,1.00713 -2.4636,1.64253 -0.697,0.58639 -1.2438,1.33104 -1.8639,1.99822 -1.4595,1.5703 -2.792,3.21849 -4.1165,4.90425 -3.8575,4.16749 0.1303,-0.33498 -3.8431,4.87909 -5.7892,7.59703 0.9795,-1.70623 -4.2428,4.91716 -0.4999,0.63403 -0.9146,1.33111 -1.3542,2.00837 -0.4239,0.65314 -0.8239,1.32154 -1.2358,1.9823 -2.4269,3.99978 -0.3591,0.1986 -2.0211,4.49362 -1.0807,2.79273 -3.1642,5.01185 -4.1342,7.85437 -0.2607,0.32622 -0.5758,0.61556 -0.7819,0.97869 -0.2346,0.41324 -0.3444,0.88584 -0.5257,1.32506 -1.262,3.05766 -2.3216,6.2185 -2.6223,9.53775 -0.5102,10.10275 0.4415,-3.47407 -1.4003,8.17227 -0.1645,1.03972 -0.029,2.10594 0.01,3.15792 0.04,1.12834 0.1117,2.25636 0.2253,3.37967 0.5939,5.87236 0.5565,0.86215 0.2988,7.42579 0.4622,3.94492 0.1578,1.51682 0.7222,5.61543 0.1341,0.97427 0.1087,1.98357 0.3981,2.9235 0.2475,0.80388 0.8731,1.44626 1.1874,2.22645 0.357,0.88617 0.5441,1.83161 0.8161,2.74742 0.4631,1.02903 0.9263,2.05808 1.3894,3.08711 0.4316,1.24246 0.7584,2.52643 1.2946,3.72743 1.194,2.67422 2.9183,5.08484 4.1817,7.72698 0.6467,1.35229 1.0283,2.82823 1.7467,4.14376 0.6859,1.25588 3.0107,3.86266 3.9535,4.96395 0.7099,0.86656 1.3405,1.80462 2.1297,2.59967 1.1628,1.17147 4.1468,3.26364 5.4108,4.17109 1.1401,0.8185 2.2501,1.6822 3.4312,2.44044 1.2942,0.83087 2.658,1.54796 3.9869,2.32195 1.5101,1.00272 3.0201,2.00547 4.5301,3.00819 1.4818,0.35276 2.98,0.64262 4.4454,1.05828 1.996,0.56617 3.9507,1.2693 5.9319,1.8853 5.8565,1.82087 12.1552,3.97378 18.2289,4.90802 1.5283,0.2351 3.0822,0.25306 4.6233,0.37959 2.4548,0.0862 6.5573,0.28171 9.0468,0.17256 2.3826,-0.10445 8.1372,-0.81643 10.4577,-0.76775 1.6485,0.0346 3.2665,0.60729 4.9146,0.56048 1.51,-0.0429 2.9705,-0.55111 4.4558,-0.82667 1.3511,-0.62361 2.7654,-1.12546 4.0534,-1.87077 4.372,-2.52986 5.6056,-4.26904 9.9702,-7.13425 2.143,-1.40679 4.6058,-2.32105 6.6374,-3.88448 2.5014,-1.925 3.7201,-5.20884 6.3018,-7.06763 0.9738,-1.21879 1.9421,-2.44205 2.9215,-3.65637 0.9582,-1.18816 1.9939,-2.31625 2.8913,-3.55103 2.9834,-4.10506 4.959,-8.92704 8.5368,-12.61436 0.8405,-1.43776 2.9004,-4.8233 3.3756,-6.27898 1.1516,-3.52772 0.7071,-7.47231 2.5183,-10.84431 0.8271,-2.44833 2.2078,-4.69896 2.9094,-7.18613 0.515,-1.82554 0.4737,-3.76388 0.7106,-5.64583 0.829,-3.0487 1.9439,-6.10163 1.908,-9.32273 -0.015,-1.36373 -0.3697,-2.70241 -0.5537,-4.05379 -0.2195,-1.61304 -0.3439,-3.24185 -0.6567,-4.83945 -3.278,-16.74172 0.5346,6.90301 -2.2889,-11.55072 -0.9932,-3.31278 -1.1753,-4.65625 -2.8515,-7.60105 -3.6524,-6.4169 0.1423,1.24907 -4.3374,-5.19621 -0.7457,-1.07284 -1.1563,-2.3434 -1.7343,-3.51511 -0.7101,-0.90793 -1.4201,-1.81582 -2.1301,-2.72375 -0.6507,-0.81089 -1.2736,-1.64486 -1.952,-2.43269 -1.1305,-1.31289 -3.8202,-4.11205 -4.9768,-5.28041 -0.9967,-1.00674 -1.9598,-2.0513 -3.025,-2.98519 -1.089,-0.95473 -2.2945,-1.76791 -3.4267,-2.67103 -1.2684,-1.01176 -2.5164,-2.04886 -3.7746,-3.07329 -1.2354,-0.92811 -2.3615,-2.0232 -3.7062,-2.78436 -2.6884,-1.52173 -4.8695,-1.57257 -7.7675,-2.43041 -1.3212,-0.39108 -2.5571,-1.06566 -3.9026,-1.36235 -2.6475,-0.58378 -5.4725,-0.0279 -8.0727,-0.991 -1.5112,-0.0231 -3.0238,-9.6e-4 -4.5336,-0.0692 -1.896,-0.0858 -9.3796,-0.71193 -10.9704,-0.87701 -2.7109,-0.28133 -4.6722,-0.81432 -6.9379,-0.67634 z m 9.7884,7.99556 c 0.9118,-0.0237 1.8246,-0.0157 2.735,0.0192 3.4136,0.13087 5.6454,0.73111 8.9292,1.41737 9.0704,1.53839 -0.6673,-0.27452 7.5135,1.70223 1.1917,0.28797 2.4407,0.33263 3.6119,0.69516 1.1004,0.3406 2.0986,0.95091 3.1591,1.4006 4.6109,1.9552 1.1484,0.21837 5.9277,2.83343 3.5617,2.59565 3.0386,2.08836 6.246,4.89879 0.9117,0.79887 1.8882,1.537 2.695,2.44175 0.8594,0.9639 2.8101,4.20967 3.583,5.28889 0.5836,0.815 1.2365,1.57815 1.8548,2.36723 3.1216,3.10912 5.3015,6.95669 7.4958,10.7312 0.4774,0.82115 1.0474,1.59139 1.4607,2.44658 0.5204,1.07696 0.8879,2.22134 1.3319,3.33199 2.5761,5.5443 2.474,4.06997 3.0337,10.01595 0.1313,1.39482 0.2502,2.80295 0.1497,4.20034 -0.078,1.08993 -0.5705,2.1194 -0.6824,3.20639 -0.1191,1.15729 0.025,2.3273 -0.01,3.49026 -0.047,1.70705 -0.1551,3.41192 -0.2327,5.11788 -1.0721,4.0425 -0.5384,8.36018 -1.5384,12.4051 -0.4856,1.96419 -1.3682,3.82471 -2.3288,5.60545 -0.6418,1.18977 -1.6193,2.16522 -2.4417,3.23807 -2.0042,2.61437 -1.4415,1.89683 -3.6245,4.2828 -0.6393,1.08314 -1.3316,2.13673 -1.9181,3.2494 -0.6049,1.14772 -1.0248,2.38851 -1.6522,3.5241 -0.199,0.36015 -3.9074,6.08061 -4.2121,6.56212 -3.3999,5.37343 -1.0211,1.94731 -4.8689,7.17616 -4.3287,3.11696 -6.373,7.89412 -10.5295,11.28797 -1.7774,1.45125 -7.2631,4.45637 -9.817,5.11544 -1.0578,0.27297 -2.1833,0.0817 -3.275,0.12258 -1.012,0.14804 -2.0273,0.27494 -3.0361,0.44409 -1.4196,0.23804 -2.815,0.63823 -4.2477,0.7773 -1.7491,0.1698 -3.5136,0.0888 -5.27,0.1466 -1.6519,0.0543 -3.302,0.19809 -4.9547,0.18968 -1.4203,-0.008 -2.8357,-0.17014 -4.2545,-0.23646 -1.4634,-0.0684 -2.928,-0.11175 -4.3919,-0.16763 -5.0707,-0.46065 -10.2226,-0.44561 -15.2257,-1.51569 -2.117,-0.4528 -4.2113,-1.03323 -6.2555,-1.74602 -4.1097,-1.43303 -5.3576,-2.30693 -8.84,-4.27848 -3.5928,-2.04762 -7.451,-4.03096 -10.3586,-7.06103 -0.7197,-0.74998 -1.1898,-1.71043 -1.8779,-2.48951 -0.4261,-0.48252 -3.5,-3.21722 -3.9133,-3.58845 -0.9868,-1.84089 -1.4872,-2.97118 -2.8072,-4.62347 -0.8306,-1.0398 -1.8977,-1.88764 -2.654,-2.98272 -2.0108,-2.91167 -3.3882,-7.11021 -4.5137,-10.46245 0.073,-1.85175 -1.4437,-3.24492 -1.7212,-4.97884 -0.1206,-0.75344 0.3104,-1.5321 0.1725,-2.28256 -0.167,-0.90818 -0.8985,-1.6497 -1.0624,-2.55846 -0.1573,-0.872 0.1526,-1.76991 0.122,-2.65546 -0.025,-0.72196 -0.1919,-1.432 -0.2878,-2.148 -1.047,-4.5668 -0.6948,-2.24328 -1.043,-6.71568 -0.082,-1.05765 -0.3547,-2.11684 -0.2514,-3.17264 0.09,-0.92124 0.7426,-1.73029 0.8217,-2.65253 0.9975,-11.62762 -1.6914,3.3215 0.3839,-7.06066 0.4912,-0.71623 1.0826,-1.37323 1.4738,-2.14866 1.9225,-3.81123 -0.9102,0.25339 1.0474,-2.89031 0.2608,-0.41881 0.6333,-0.76003 0.8994,-1.17545 0.559,-0.87242 0.9649,-1.91893 1.3735,-2.86122 0.5008,-2.01047 1.5559,-3.80194 2.3538,-5.69052 0.311,-0.73626 0.4483,-1.54711 0.8284,-2.25021 0.3387,-0.62662 0.9104,-1.09934 1.3034,-1.69342 0.4041,-0.61088 0.7214,-1.27501 1.0822,-1.91251 2.6965,-5.18235 -0.9066,1.63462 2.0702,-3.64021 1.3752,-2.43686 1.1037,-2.56022 2.9715,-4.87939 0.6135,-0.76182 3.0566,-3.20608 3.8596,-4.01926 2.353,-2.20642 0.5456,-0.41919 2.7798,-2.90093 0.4647,-0.51617 0.9695,-0.99594 1.4234,-1.52164 0.5585,-0.64688 1.0019,-1.39513 1.6117,-1.99389 0.6202,-0.6089 1.39,-1.04534 2.0544,-1.60566 0.7008,-0.59104 1.3591,-1.23076 2.0386,-1.84614 0.7375,-0.71855 1.341,-1.6074 2.2126,-2.15565 0.8814,-0.55434 2.0153,-0.58794 2.929,-1.0854 -0.3255,3.93358 4.6458,7.26582 8.3741,3.48795 v 0 c 0.7459,-1.11509 1.3546,-2.33518 2.2375,-3.34525 1.9504,-2.23142 3.6413,-3.05758 6.1707,-4.44455 1.9939,-1.09332 4.2164,-2.26084 6.366,-3.04442 1.0219,-0.37251 2.0843,-0.62273 3.1264,-0.93412 3.2603,-0.0416 6.3317,-1.30792 9.5512,-1.63365 0.9065,-0.0917 1.8173,-0.1471 2.7291,-0.17082 z m 6.111,41.79921 c -2.7223,0.10713 -5.3521,2.41286 -4.5226,6.1749 0.3243,0.9398 0.7691,1.84641 0.9729,2.81948 0.083,0.39808 0.1219,0.80306 0.145,1.20997 -1.0402,1.28448 -1.5127,3.11248 -0.8706,5.32656 2.5375,1.46343 4.691,4.60407 7.6125,4.3903 3.3327,-0.24387 3.7152,-4.66214 3.2592,-6.93887 -0.1738,-0.86756 -0.5054,-1.69713 -0.7048,-2.55918 -0.697,-3.01365 -0.6318,-3.27877 -0.9558,-6.33375 -0.6452,-2.92602 -2.8185,-4.17272 -4.9358,-4.08941 z m -33.6983,1.5847 c -2.4724,-0.0949 -5.0159,1.6749 -4.8407,5.16966 0.1447,4.31923 0.086,2.20299 0.1801,6.34878 -0.1308,6.33683 8.8308,6.52188 8.9617,0.18504 -0.018,-4.56334 -0.066,-2.2298 0.1615,-7.00038 -0.1546,-3.08362 -2.281,-4.61929 -4.4626,-4.7031 z m 30.3413,11.52534 c -0.013,0.17134 -0.033,0.34176 -0.067,0.51022 -0.042,0.2046 -0.2759,0.31339 -0.4139,0.47008 0.1834,-0.29206 0.3385,-0.62697 0.4813,-0.9803 z m -11.9583,23.18232 c -1.5365,0.0244 -2.3987,0.96341 -4.5884,2.37961 -4.0375,5.16719 0.6767,-1.08707 -2.8876,4.35361 -0.4617,0.70479 -1.053,1.31688 -1.5396,2.00477 -0.1627,0.23005 -0.3111,0.46973 -0.4606,0.70871 -0.9624,-0.95132 -1.8991,-1.93228 -2.8364,-2.8933 -2.7655,-1.66381 -4.1344,-3.01408 -7.761,-2.67595 -2.2672,0.21139 -5.7613,2.61658 -7.2435,4.17147 -1.7908,1.8787 -2.6288,4.53215 -4.5652,6.30791 -3.517,6.24201 5.3105,11.21576 8.8275,4.97375 1.3718,-3.29192 0.6825,-2.81644 3.4128,-4.98756 1.3621,-0.98519 2.0539,-0.97902 1.0316,0.37575 -0.066,0.11477 0.1264,0.23261 0.1895,0.34888 1.5762,1.32161 -0.1323,-0.21803 1.7346,2.01738 0.4659,0.55788 0.9986,1.05645 1.4977,1.58494 0.5014,0.53101 0.8887,1.19982 1.5039,1.59353 1.7631,1.12843 4.1354,1.01428 6.0637,1.18734 1.003,-0.39199 2.1526,-0.52323 3.0092,-1.17593 2.1677,-1.65171 3.9723,-5.45056 5.3324,-7.9796 0.012,0.0121 0.027,0.0217 0.039,0.0339 0.3899,0.39332 2.4256,3.15125 2.7638,3.60412 1.2675,0.84578 2.9862,2.1573 4.5212,2.56272 0.7981,0.21081 1.6528,0.0697 2.4689,0.19407 2.1227,0.32365 3.5854,1.40629 5.7513,-0.24986 1.3917,-1.06421 2.1494,-2.76724 3.2241,-4.15085 0.4441,-0.78598 0.8278,-1.61035 1.2908,-2.38423 0.1834,0.3065 0.3171,0.52732 0.629,1.06962 0.5189,1.06644 1.7179,3.86762 2.7364,4.71939 0.7471,0.62486 1.7449,0.86569 2.6174,1.29851 7.244,2.93358 11.3928,-7.31097 4.1488,-10.24455 0.4217,0.47057 1.039,0.82168 1.2652,1.41173 0.3598,0.93856 -5.8714,-3.69393 -2.3194,-1.9271 -1.0543,-2.55693 -1.9323,-5.76899 -4.8725,-7.04169 -4.5022,-1.94888 -6.391,-0.4131 -9.487,2.03196 0,0 -2.0467,2.85033 -4.0069,4.17938 -1.903,1.29022 -3.5007,-2.14618 -5.1219,-3.95691 -0.7626,-0.8517 -1.3818,-1.98159 -2.4427,-2.40735 -1.8397,-0.73828 -3.0043,-1.05281 -3.9261,-1.03815 z"
           sodipodi:nodetypes="sscssccssscssscssscscsscssscsssccssscsssccssscssscssscsscscscssscssccsssscsssccsssscssscssscsscsssscssscssscsscssssscsscsscsscsssscssscssscssscsscsssscscscssscsssssccssscssccccscsccscssccssccsscssscscscssscccsccscscssssc" /></g></g></g></svg>
