<svg id="visual" viewBox="0 0 900 600" width="900" height="600" xmlns="http://www.w3.org/2000/svg" xmlns:xlink="http://www.w3.org/1999/xlink" version="1.1"><rect x="0" y="0" width="900" height="600" fill="#001220"></rect><defs><linearGradient id="grad1_0" x1="33.3%" y1="100%" x2="100%" y2="0%"><stop offset="20%" stop-color="#001220" stop-opacity="1"></stop><stop offset="80%" stop-color="#001220" stop-opacity="1"></stop></linearGradient></defs><defs><linearGradient id="grad2_0" x1="0%" y1="100%" x2="66.7%" y2="0%"><stop offset="20%" stop-color="#001220" stop-opacity="1"></stop><stop offset="80%" stop-color="#001220" stop-opacity="1"></stop></linearGradient></defs><g transform="translate(900, 600)"><path d="M-378.6 0C-375.2 -51 -371.7 -102 -349.8 -144.9C-327.8 -187.8 -287.3 -222.6 -247.5 -247.5C-207.7 -272.4 -168.6 -287.4 -127.4 -307.7C-86.3 -327.9 -43.2 -353.2 0 -378.6L0 0Z" fill="#7AB8BF"></path></g><g transform="translate(0, 0)"><path d="M378.6 0C374.1 49.3 369.5 98.7 349.8 144.9C330 191.1 295 234.2 252.4 252.4C209.9 270.7 159.7 264 116.3 280.9C73 297.7 36.5 338.2 0 378.6L0 0Z" fill="#7AB8BF"></path></g></svg>